# xmcd
#
# Track frame offsets:
#	150
#	11160
#	24455
#	50255
#	59607
#	74432
#	94990
#	110837
#	129220
#	145715
#	168272
#	186592
#	203895
#	229097
#	244140
#	262000
#
# Disc length: 3728
#
# Revision: 1
# Processed by: cddbd v1.5.1PL0 Copyright (c) Steve Scherf et al.
# Submitted via: CDex 1.50Beta3
# Normalized: r0:TDELIM( - )
#
DISCID=ed0e8e10
DTITLE=Various Artist - Jazz for Swinging Lovers
DYEAR=1900
DGENRE=Jazz
TTITLE0=Benny Carter - You Belong To Me
TTITLE1=Tommy Dorsey/Frank Sinatra - How About You?
TTITLE2=Paul Desmond - Here's That Rainy Day
TTITLE3=Lena Horne - You Do Something To Me
TTITLE4=Artie Shaw - What Is This Thing Called Love?
TTITLE5=Gerry Mulligan Quartet - The Nearness Of You
TTITLE6=Cootie Williams - Just In Time
TTITLE7=Sonny Rollins - 'Round Midnight
TTITLE8=Vanessa Rubin - Our Love Is Here To Stay
TTITLE9=Warren Hill - Our First Dance
TTITLE10=Artie Shaw - The Carioca
TTITLE11=Paul Desmond - My Funny Valentine
TTITLE12=Antonio Hart - Puerto Rico
TTITLE13=Lena Horne - The Man I Love
TTITLE14=Larry Clinton/Helen Ward - Heart And Soul
TTITLE15=Paul Horn - In the Wee Small Hours Of The Morning
EXTD=
EXTT0=
EXTT1=
EXTT2=
EXTT3=
EXTT4=
EXTT5=
EXTT6=
EXTT7=
EXTT8=
EXTT9=
EXTT10=
EXTT11=
EXTT12=
EXTT13=
EXTT14=
EXTT15=
PLAYORDER=
